<svg width="24" height="31" viewBox="0 0 24 31" fill="none" xmlns="http://www.w3.org/2000/svg">
<path d="M10.1111 18.8275C13.1744 16.5587 17.2315 14.8847 18.6753 14.3916C18.9527 14.2969 19.1783 14.4946 19.1088 14.7794C18.6561 16.6347 16.8003 18.3042 15.8494 18.9525C14.054 19.9626 11.7533 19.8799 10.2825 19.6144C9.88966 19.5435 9.79036 19.0651 10.1111 18.8275Z" fill="#106E43"/>
<path d="M19.1619 13.3343C14.6399 14.5952 10.4148 17.263 8.66121 18.5925C8.54743 18.6787 8.40225 18.718 8.26752 18.6707C7.44822 18.3832 6.52291 17.3475 6.00302 16.6511C5.87987 16.4861 5.87932 16.2609 6.03706 16.1286C7.64608 14.7795 14.852 12.9946 18.9371 12.1253C19.247 12.0594 19.5349 12.2969 19.5349 12.6137V12.8472C19.5349 13.0748 19.3811 13.2731 19.1619 13.3343Z" fill="#479327"/>
<path d="M19.0537 11.4643C14.412 11.7708 8.48981 14.0375 5.71543 15.3103C5.50428 15.4071 5.25234 15.3496 5.14337 15.1444C4.67702 14.2665 4.56505 12.8734 4.5705 12.0424C4.57159 11.8757 4.6606 11.7223 4.80919 11.6469C7.45688 10.302 15.0636 10.1807 19.056 10.3017C19.3247 10.3098 19.535 10.5306 19.535 10.7994V10.9574C19.535 11.2264 19.3222 11.4465 19.0537 11.4643Z" fill="#7FBA17"/>
<path d="M12.5816 8.03442C12.7234 7.4837 13.024 6.88055 13.3704 6.31648C13.6512 5.85931 13.3105 5.49194 12.9603 5.89843C12.5874 6.33137 12.293 6.76468 12.1118 7.07415C12.0718 7.14235 12.0512 7.21919 12.0486 7.29817L11.9497 10.2776C11.9448 10.4254 11.8236 10.5427 11.6758 10.5427C11.5172 10.5427 11.3917 10.4086 11.4022 10.2504L11.6061 7.17801C12.174 4.1623 15.0572 3.29386 16.8916 3.16012C17.1746 3.13948 17.403 3.37862 17.3763 3.66115C17.0259 7.3697 14.5778 8.42724 12.9957 8.52488C12.7212 8.54182 12.5129 8.30082 12.5816 8.03442Z" fill="#76BB13"/>
<path d="M9.26388 6.16919L10.1054 7.27197C10.3565 7.60104 10.1185 8.05441 9.71873 7.94694C7.88352 7.45356 6.9469 5.64268 6.59737 4.36103C6.51869 4.07254 6.74103 3.79941 7.03996 3.80709C9.16698 3.86172 10.2087 4.84129 10.6586 5.86702C10.8586 6.32294 10.3109 6.50338 9.98098 6.13054C9.86634 6.00098 9.75127 5.88052 9.6373 5.76895C9.27339 5.41267 8.95492 5.76432 9.26388 6.16919Z" fill="#136D47"/>
<path d="M11.835 4.82243C11.8998 4.62723 11.6162 3.55508 11.3419 2.62414C11.2262 2.23156 11.4772 2.06793 11.6603 2.43395C11.7145 2.54228 11.7675 2.6578 11.8188 2.77754C12.0184 3.24358 12.567 3.19519 12.4371 2.70509C12.1421 1.59124 11.2694 0.77624 10.5144 0.306387C10.2347 0.132291 9.88941 0.32209 9.8677 0.650856C9.64868 3.9664 11.73 5.13898 11.835 4.82243Z" fill="#469531"/>
<path d="M0.480206 13.6995C0.205155 13.6084 0 13.3622 0 13.0725V13.0725C0 12.7765 0.212364 12.5232 0.503806 12.4715L1.89767 12.2244L2.10999 12.1867C2.86347 12.0532 3.58622 12.8237 3.68683 13.5823C3.78954 14.3567 4.09623 15.2942 4.8 16.2618C6.85062 19.081 7.44034 19.489 10.1003 20.5265C10.2869 20.5993 10.4848 20.6542 10.6828 20.684C17.0149 21.6395 18.5226 17.908 19.4233 16.4861C20.0578 15.4842 20.5206 13.3481 20.6323 11.6998C20.6708 11.1311 21.1274 10.6543 21.6974 10.6543H23C23.5523 10.6543 24 11.102 24 11.6543V12.6423C24 13.0643 23.7304 13.4328 23.352 13.6197C20.7143 14.923 20.7088 17.5154 21.1861 19.165C21.3069 19.5823 21.2121 20.046 20.887 20.3341L20.0149 21.1073C19.7224 21.3666 19.3065 21.4241 18.9358 21.3001C16.1246 20.3599 14.4212 21.9809 13.6833 23.3519C13.4817 23.7266 13.1103 24.0001 12.6848 24.0001H11.3265C10.8955 24.0001 10.5226 23.7175 10.3335 23.3303C9.17644 20.9598 6.79644 21.015 5.25093 21.4982C4.83907 21.627 4.37709 21.5447 4.08152 21.2303L3.12925 20.2173C2.856 19.9266 2.78865 19.501 2.91786 19.1235C4.05582 15.7994 2.02827 14.212 0.480206 13.6995Z" fill="#00382E"/>
<path d="M1.81641 25.1035C2.04688 25.1348 2.16211 25.1777 2.16211 25.2324L2.44336 26.0703L2.63086 26.7383C2.7168 27.1367 2.82812 27.5664 2.96484 28.0273C2.97266 28.0234 2.98047 28.0215 2.98828 28.0215V28.0801H2.98242C2.98633 28.0918 2.99023 28.1055 2.99414 28.1211C3.00195 28.1367 3.00586 28.1484 3.00586 28.1562L3.11719 28.3965L3.14648 28.543L3.13477 28.6074C3.17773 28.6387 3.22656 28.6562 3.28125 28.6602H3.39844H3.4043C3.44727 28.668 3.47266 28.6777 3.48047 28.6895L3.44531 28.7598L3.45117 28.8594C3.45117 28.9023 3.43164 28.9434 3.39258 28.9824H3.36914C3.33789 28.9512 3.3125 28.9355 3.29297 28.9355H3.28125C3.24219 28.9355 3.2207 28.9473 3.2168 28.9707C3.2168 28.9824 3.25195 28.9902 3.32227 28.9941V29.0117C3.32227 29.0273 3.29883 29.0371 3.25195 29.041L3.17578 29.0176H3.11719L2.75391 29.0527C2.67188 29.0527 2.57031 29.0039 2.44922 28.9062L2.49609 28.8594V28.8359L2.4375 28.7129C2.4375 28.666 2.50977 28.6426 2.6543 28.6426L2.66016 28.6309V28.6074C2.66016 28.4316 2.58008 28.2344 2.41992 28.0156H2.41406C2.00781 28.0469 1.5332 28.0879 0.990234 28.1387H0.861328C0.845703 28.1543 0.792969 28.3105 0.703125 28.6074C0.71875 28.623 0.740234 28.6309 0.767578 28.6309H0.884766C1.02148 28.6309 1.13867 28.6855 1.23633 28.7949V28.8008C1.23633 28.8281 1.18555 28.8809 1.08398 28.959C1.08398 29.002 0.787109 29.0234 0.193359 29.0234C0.0957031 29.0195 0.046875 29.0078 0.046875 28.9883L0.0703125 28.9121V28.9062C0.0703125 28.8906 0.0546875 28.8555 0.0234375 28.8008C0.0234375 28.7773 0.0585938 28.748 0.128906 28.7129L0.134766 28.6953V28.6074C0.134766 28.5723 0.154297 28.5547 0.193359 28.5547L0.216797 28.5781L0.193359 28.6484L0.199219 28.6543H0.205078C0.251953 28.5879 0.275391 28.541 0.275391 28.5137V28.4902C0.275391 28.4668 0.269531 28.4551 0.257812 28.4551C0.296875 28.3848 0.328125 28.291 0.351562 28.1738L0.65625 27.3301L0.767578 27.0547C0.767578 27.0195 0.802734 26.9609 0.873047 26.8789V26.8672L0.855469 26.8086C0.898438 26.7773 0.919922 26.752 0.919922 26.7324L0.902344 26.7148C0.902344 26.6758 0.925781 26.6348 0.972656 26.5918L0.966797 26.5508L1.23633 25.7598C1.30273 25.6426 1.36328 25.502 1.41797 25.3379C1.42969 25.3379 1.45898 25.3008 1.50586 25.2266C1.66602 25.1484 1.76953 25.1074 1.81641 25.1035ZM0.972656 27.7109V27.7402L0.990234 27.752C1.50195 27.6699 1.9043 27.6289 2.19727 27.6289H2.4375L2.45508 27.6055V27.5996C2.43555 27.459 2.40039 27.3887 2.34961 27.3887L1.98047 26.2754C1.9375 26.1152 1.89453 25.9863 1.85156 25.8887C1.83203 25.8418 1.80859 25.8086 1.78125 25.7891C1.78125 25.8281 1.7793 25.8691 1.77539 25.9121C1.50195 26.459 1.30469 26.8301 1.18359 27.0254C1.12109 27.1465 1.05078 27.375 0.972656 27.7109ZM3.19922 28.8359V28.8477H3.20508C3.2832 28.8477 3.32227 28.8359 3.32227 28.8125L3.29297 28.7891C3.26172 28.7891 3.23047 28.8047 3.19922 28.8359ZM1.75781 25.6777H1.76367C1.79883 25.6777 1.81641 25.6621 1.81641 25.6309V25.6074H1.79883C1.77148 25.623 1.75781 25.6465 1.75781 25.6777ZM1.93359 25.1914H1.9043V25.2207L1.92188 25.2383H1.96875L1.98047 25.2266V25.2207C1.97266 25.2012 1.95703 25.1914 1.93359 25.1914ZM2.00391 27.7227L1.99219 27.7461L2.00391 27.7578H2.0332C2.06836 27.7578 2.08789 27.75 2.0918 27.7344V27.7227H2.00391ZM2.92383 28.2148H2.75391V28.2383L2.92383 28.2266V28.2148ZM0.662109 28.1855H0.650391L0.644531 28.2207L0.650391 28.25H0.662109L0.679688 28.2324V28.1914L0.662109 28.1855ZM2.70703 29.0176V29.0293H2.73047C2.75391 29.0293 2.76758 29.0215 2.77148 29.0059L2.75977 28.9883C2.73242 28.9883 2.71484 28.998 2.70703 29.0176ZM0.433594 28.2266L0.392578 28.2617V28.2793C0.423828 28.2793 0.441406 28.2656 0.445312 28.2383L0.433594 28.2266ZM2.36719 27.5293L2.39062 27.5L2.39648 27.5059V27.5527L2.37891 27.5703L2.36719 27.5293ZM1.08984 26.8203L1.07227 26.7031L1.06641 26.7383V26.7559H1.07227C1.08398 26.8223 1.08984 26.8477 1.08984 26.832V26.8203ZM3.0293 28.5488H3.02344V28.5898L3.04102 28.6074H3.04688V28.5664L3.0293 28.5488ZM0.392578 28.6074L0.369141 28.6133V28.6309L0.386719 28.6484H0.392578L0.404297 28.6309L0.392578 28.6074ZM1.78125 25.3906H1.77539V25.4023L1.78711 25.4199H1.79883V25.4023L1.78125 25.3906ZM1.56445 27.8398H1.54688V27.8574H1.56445V27.8398ZM1.03125 26.8848H1.02539V26.9023H1.03125V26.8848ZM4.6582 25.9355H4.85156C4.94531 25.9355 5.09766 25.9766 5.30859 26.0586C5.38672 26.0586 5.50977 26.1074 5.67773 26.2051H5.70703C5.75 26.2051 5.84375 26.127 5.98828 25.9707C6.01953 25.9707 6.07812 26.0254 6.16406 26.1348C6.20312 26.1504 6.24805 26.1875 6.29883 26.2461V26.2637C6.08008 26.5059 5.9707 26.6406 5.9707 26.668C5.86523 27.0234 5.79492 27.2207 5.75977 27.2598C5.68555 27.3379 5.58008 27.4062 5.44336 27.4648C5.27148 27.6367 5.11719 27.7227 4.98047 27.7227L4.80469 27.7285L4.42383 27.6934H4.34766C4.31641 27.6934 4.27539 27.8223 4.22461 28.0801L4.27148 28.0918H4.28906C4.35156 28.0918 4.41992 28.0684 4.49414 28.0215L4.62891 28.0098H4.86328C5.23828 28.0098 5.54688 28.0449 5.78906 28.1152C5.82422 28.1387 5.91016 28.1816 6.04688 28.2441L6.24609 28.3906C6.40234 28.5234 6.5 28.6426 6.53906 28.748C6.67969 29.0215 6.75 29.2539 6.75 29.4453C6.75 29.5898 6.63672 29.7695 6.41016 29.9844L6.05273 30.2422C5.86523 30.3594 5.64258 30.418 5.38477 30.418L5.2207 30.4414C4.52539 30.4414 4.05469 30.3008 3.80859 30.0195C3.62891 29.9102 3.53906 29.7676 3.53906 29.5918C3.47266 29.4668 3.43945 29.3027 3.43945 29.0996L3.41602 28.9707L3.43945 28.8945H3.45703C3.47656 28.9844 3.49219 29.0293 3.50391 29.0293H3.52148C3.57617 28.7832 3.61914 28.6191 3.65039 28.5371V28.5254H3.64453C3.53125 28.709 3.47461 28.8145 3.47461 28.8418H3.46289C3.44727 28.8418 3.43945 28.8203 3.43945 28.7773C3.44336 28.6992 3.51367 28.5645 3.65039 28.373C3.80273 28.2285 3.87891 28.1465 3.87891 28.127C3.91797 27.8027 3.94727 27.6016 3.9668 27.5234C3.86523 27.3281 3.81445 27.168 3.81445 27.043L3.80859 26.9434C3.80859 26.877 3.83398 26.7559 3.88477 26.5801C3.92773 26.5371 4.00977 26.4316 4.13086 26.2637C4.33789 26.0449 4.51367 25.9355 4.6582 25.9355ZM4.44141 26.082V26.0879C4.57812 26.0527 4.64648 26.0234 4.64648 26V25.9941H4.62891C4.57422 25.9941 4.51172 26.0234 4.44141 26.082ZM6.00586 26.1055L5.98828 26.123V26.1289C5.99609 26.1406 6.00977 26.1465 6.0293 26.1465H6.06445V26.1348L6.02344 26.1055H6.00586ZM4.58789 26.2051V26.2285H4.59961L4.77539 26.1641V26.1348H4.72266C4.63281 26.1543 4.58789 26.1777 4.58789 26.2051ZM4.23633 26.8086V26.8379C4.29883 27.1348 4.34375 27.2832 4.37109 27.2832C4.46094 27.3691 4.53906 27.4121 4.60547 27.4121C4.90234 27.4121 5.11523 27.3457 5.24414 27.2129C5.3418 27.123 5.41211 27.0293 5.45508 26.9316C5.48633 26.877 5.50195 26.8359 5.50195 26.8086V26.7148C5.50195 26.6523 5.45508 26.5586 5.36133 26.4336C5.15039 26.3398 5.00391 26.293 4.92188 26.293C4.73828 26.293 4.56055 26.373 4.38867 26.5332C4.28711 26.6582 4.23633 26.75 4.23633 26.8086ZM5.95898 26.457V26.4922H5.9707C6.05273 26.4219 6.10938 26.3613 6.14062 26.3105V26.293H6.13477C6.0918 26.293 6.0332 26.3477 5.95898 26.457ZM4.30078 26.4453L4.32422 26.4512C4.34766 26.4512 4.37891 26.4258 4.41797 26.375V26.3516H4.38281C4.32812 26.3828 4.30078 26.4141 4.30078 26.4453ZM5.58984 26.3926H5.56055V26.3984C5.58789 26.4727 5.62109 26.5098 5.66016 26.5098C5.67188 26.5098 5.67773 26.5039 5.67773 26.4922C5.67773 26.4648 5.64844 26.4316 5.58984 26.3926ZM3.94336 26.709H3.96094C3.97266 26.7012 4.00391 26.6621 4.05469 26.5918L4.03711 26.5801C4.01367 26.5801 3.98242 26.623 3.94336 26.709ZM3.86719 26.8848C3.86719 26.9707 3.88672 27.0352 3.92578 27.0781H3.94922C3.96094 27.0781 3.9668 27.0723 3.9668 27.0605C3.95117 26.8965 3.93164 26.8145 3.9082 26.8145C3.88867 26.8145 3.875 26.8379 3.86719 26.8848ZM5.40234 27.207V27.2129H5.4375C5.50781 27.2129 5.55273 27.1328 5.57227 26.9727V26.9434L5.56641 26.9316H5.54883C5.45117 27.0879 5.40234 27.1797 5.40234 27.207ZM4.16602 26.9551L4.1543 26.9727C4.1543 27.0391 4.17578 27.0996 4.21875 27.1543H4.22461V27.1309C4.2168 27.0293 4.19727 26.9707 4.16602 26.9551ZM5.70703 27.1836H5.68945L5.67188 27.2129V27.2188H5.68945C5.69336 27.2188 5.69922 27.207 5.70703 27.1836ZM5.28516 27.3418H5.30273C5.34961 27.3223 5.38672 27.2949 5.41406 27.2598L5.39648 27.2363C5.33008 27.2832 5.29297 27.3184 5.28516 27.3418ZM5.03906 27.4121V27.4297L5.07422 27.4531H5.09766C5.11719 27.4531 5.15625 27.4238 5.21484 27.3652V27.3535H5.16211C5.11523 27.3535 5.07422 27.373 5.03906 27.4121ZM3.97266 27.3887H3.94922V27.4062C3.98828 27.4688 4.04688 27.5117 4.125 27.5352V27.5234C4.08984 27.4336 4.03906 27.3887 3.97266 27.3887ZM5.26758 27.3887L5.24414 27.4121V27.4355H5.25586L5.30273 27.3945V27.3887H5.26758ZM4.21289 27.4297L4.19531 27.4473C4.21094 27.4863 4.23633 27.5059 4.27148 27.5059L4.30078 27.4707C4.30078 27.4551 4.27148 27.4414 4.21289 27.4297ZM4.91602 27.4531L4.89258 27.4766C4.89258 27.4844 4.92578 27.4922 4.99219 27.5L5.03906 27.4941C5.03906 27.4785 5.01367 27.4648 4.96289 27.4531H4.91602ZM4.3418 27.5L4.33594 27.5059V27.5527L4.35938 27.5762H4.45898V27.5527C4.39258 27.5176 4.35352 27.5 4.3418 27.5ZM4.54102 27.5645L4.51758 27.582C4.51758 27.6172 4.58203 27.6348 4.71094 27.6348H4.88086C4.9043 27.6348 4.91797 27.627 4.92188 27.6113C4.83984 27.5801 4.73242 27.5645 4.59961 27.5645H4.54102ZM4.11328 27.6348L4.08398 27.6582V27.7051C4.08398 27.7363 4.09961 27.7559 4.13086 27.7637L4.1543 27.7461V27.6523L4.13086 27.6348H4.11328ZM5.02148 28.1035L4.89258 28.127V28.1328C4.89258 28.168 5.09375 28.1914 5.49609 28.2031L5.61914 28.2441H5.63086C5.64258 28.2441 5.6582 28.2383 5.67773 28.2266L5.84766 28.2324V28.2148C5.82812 28.1836 5.7832 28.168 5.71289 28.168H5.6543C5.63477 28.168 5.61719 28.1738 5.60156 28.1855L5.46094 28.127C5.37891 28.1113 5.25195 28.1035 5.08008 28.1035H5.02148ZM4.57617 28.127H4.55273H4.57617ZM4.25391 28.291C4.25391 28.2988 4.31641 28.3066 4.44141 28.3145C4.49219 28.3105 4.51758 28.3027 4.51758 28.291C4.49805 28.2598 4.47461 28.2383 4.44727 28.2266H4.38281C4.29688 28.2383 4.25391 28.2598 4.25391 28.291ZM5.25586 28.3145H5.25V28.3203C5.25 28.3359 5.29688 28.3457 5.39062 28.3496L5.39648 28.3438V28.332L5.25586 28.3145ZM5.81836 28.3145L5.80078 28.3379L5.81836 28.3496L5.8418 28.3438V28.3145H5.81836ZM3.99609 28.3906L4.02539 28.4082H4.06641L4.08984 28.3789V28.3438L4.07227 28.3203C4.0332 28.3203 4.00781 28.3438 3.99609 28.3906ZM3.75586 28.502V28.5078L3.77344 28.5254C3.86719 28.502 3.91406 28.4707 3.91406 28.4316V28.3906L3.90234 28.373C3.85156 28.3926 3.80273 28.4355 3.75586 28.502ZM5.90039 28.3965H5.89453C5.89453 28.4238 5.93945 28.4473 6.0293 28.4668L6.05273 28.4609V28.4492C6.02539 28.4141 5.98242 28.3965 5.92383 28.3965H5.90625H5.90039ZM4.41797 28.4082L4.38867 28.4316L4.40625 28.4492H4.44727V28.4199L4.42969 28.4082H4.41797ZM5.24414 28.4199L5.21484 28.4492C5.21484 28.4648 5.3125 28.4785 5.50781 28.4902C5.66797 28.5371 5.80664 28.6016 5.92383 28.6836L6.00586 28.6895L6.0293 28.666V28.6602C6.00195 28.6055 5.87695 28.5449 5.6543 28.4785C5.44727 28.4395 5.31055 28.4199 5.24414 28.4199ZM4.86328 28.502V28.5195L4.76953 28.5371L4.64648 28.5195L4.21289 28.5254C4.0332 28.6895 3.94336 28.8047 3.94336 28.8711L3.9082 28.9121V28.9238C3.93555 29.3145 3.97461 29.5566 4.02539 29.6504C4.0293 29.6699 4.09961 29.7285 4.23633 29.8262C4.23633 29.8535 4.35352 29.9004 4.58789 29.9668C4.93164 30.0176 5.2168 30.043 5.44336 30.043C5.73633 29.9883 5.93555 29.9062 6.04102 29.7969C6.23242 29.6016 6.32812 29.4414 6.32812 29.3164V29.2871C6.32812 29.2207 6.25195 29.0898 6.09961 28.8945C6.08008 28.8398 6.02148 28.7871 5.92383 28.7363C5.75195 28.623 5.57812 28.5527 5.40234 28.5254L5.03906 28.5195V28.4844V28.4785H4.96875C4.91406 28.4785 4.87891 28.4863 4.86328 28.502ZM6.12305 28.5078H6.08203V28.5195L6.31055 28.7246H6.32227V28.7129C6.26758 28.6035 6.20117 28.5352 6.12305 28.5078ZM3.94336 28.6309V28.6484H3.96094L4.03125 28.625V28.6016H4.01953C3.96875 28.6055 3.94336 28.6152 3.94336 28.6309ZM3.86133 28.6895V28.7129H3.87891L3.91406 28.6719V28.6543C3.89062 28.6543 3.87305 28.666 3.86133 28.6895ZM3.70312 28.8359L3.70898 28.8652H3.7207C3.74023 28.8652 3.76367 28.8066 3.79102 28.6895H3.7793C3.72852 28.7285 3.70312 28.7773 3.70312 28.8359ZM6.07617 28.7129H6.05273C6.05273 28.7324 6.10938 28.8105 6.22266 28.9473V28.9531H6.23438V28.9297C6.18359 28.7852 6.13086 28.7129 6.07617 28.7129ZM6.60352 29.1465H6.58008V29.1582L6.59766 29.1816L6.60352 29.1699V29.1465ZM6.46875 29.1875H6.43945V29.1992L6.45703 29.2227H6.46875L6.49219 29.1992L6.46875 29.1875ZM3.50391 29.2402L3.49219 29.2461V29.2871L3.51562 29.3047H3.52148V29.2402H3.50391ZM6.5625 29.3516V29.3633C6.5625 29.3984 6.57031 29.418 6.58594 29.4219H6.59766C6.62891 29.3672 6.64453 29.3086 6.64453 29.2461L6.63867 29.2402H6.62109C6.58203 29.2676 6.5625 29.3047 6.5625 29.3516ZM3.83789 29.2578L3.82617 29.2754L3.81445 29.3926C3.81836 29.4746 3.83008 29.5156 3.84961 29.5156H3.86133C3.87305 29.5078 3.87891 29.4941 3.87891 29.4746V29.3984C3.87891 29.3047 3.86914 29.2578 3.84961 29.2578H3.83789ZM3.5332 29.3457H3.52148V29.3633C3.52539 29.3906 3.5332 29.4043 3.54492 29.4043L3.5625 29.3926V29.375L3.5332 29.3457ZM6.19336 29.75V29.7617L6.21094 29.7734C6.30859 29.7461 6.35742 29.6953 6.35742 29.6211V29.5801H6.33984C6.24219 29.6543 6.19336 29.7109 6.19336 29.75ZM3.7793 29.7207L3.75586 29.75C3.76758 29.7773 3.7793 29.791 3.79102 29.791L3.81445 29.7617C3.81445 29.7461 3.80273 29.7324 3.7793 29.7207ZM4.01953 29.832H4.00781V29.8496L4.03125 29.873H4.06641V29.8555C4.0625 29.8398 4.04688 29.832 4.01953 29.832ZM3.9375 29.873L3.91992 29.8965V29.9082H3.97266V29.873H3.9375ZM5.41992 30.1484C4.93945 30.1172 4.66797 30.0898 4.60547 30.0664L4.44727 30.0547V30.0664C4.49805 30.1055 4.56445 30.1309 4.64648 30.1426L4.82227 30.1367L4.86328 30.166L4.86914 30.1602H4.88086C4.98633 30.1797 5.09766 30.1895 5.21484 30.1895H5.34375C5.51562 30.1895 5.63477 30.168 5.70117 30.125C5.86523 30.0664 5.94727 30.0332 5.94727 30.0254V30.0195C5.70508 30.0703 5.5293 30.1133 5.41992 30.1484ZM5.68945 30.3418H5.70703C5.73828 30.3418 5.83398 30.2949 5.99414 30.2012V30.1895H5.9707C5.7832 30.2324 5.68945 30.2832 5.68945 30.3418ZM5.52539 30.3184V30.3301H5.54883C5.61914 30.3184 5.6543 30.2949 5.6543 30.2598H5.63086C5.57617 30.2793 5.54102 30.2988 5.52539 30.3184ZM4.6582 30.2949L4.62891 30.2715L4.62305 30.2773V30.2832L4.64648 30.2949H4.6582ZM4.74609 30.3125H4.72266V30.3184C4.72656 30.334 4.74805 30.3418 4.78711 30.3418H4.85156C4.85156 30.3223 4.81641 30.3125 4.74609 30.3125ZM5.2207 30.3125L5.20898 30.3301V30.3418C5.21289 30.3574 5.22656 30.3652 5.25 30.3652H5.28516L5.36133 30.3477V30.3301L5.25586 30.3125H5.2207ZM9.04688 26.2695C9.19922 26.2695 9.32812 26.377 9.43359 26.5918C9.45312 26.5918 9.48047 26.6172 9.51562 26.668L9.5918 27.1016C9.56445 27.1484 9.46094 27.1719 9.28125 27.1719H9.22266C9.07812 27.1484 9.00586 27.0996 9.00586 27.0254C9.00586 26.9707 8.96094 26.8945 8.87109 26.7969C8.85938 26.7773 8.77539 26.7676 8.61914 26.7676C8.4707 26.7676 8.29102 26.8066 8.08008 26.8848C7.93164 27.041 7.83398 27.1621 7.78711 27.248C7.81445 27.916 7.82422 28.334 7.81641 28.502C7.81641 28.5371 7.83984 28.5547 7.88672 28.5547H8.02734C8.08984 28.5586 8.12109 28.5703 8.12109 28.5898V28.5957L8.14453 28.6719L8.13281 29L8.09766 29.0469L7.82227 29.0762H7.79883L7.68164 29.1113C7.23242 29.0957 7.00781 29.0781 7.00781 29.0586C6.92969 29.0586 6.89062 29.0234 6.89062 28.9531C6.88281 28.8828 6.87891 28.8105 6.87891 28.7363C6.87891 28.6621 6.95508 28.6133 7.10742 28.5898C7.10742 28.5586 7.16016 28.543 7.26562 28.543L7.2832 28.5371V28.5254L7.24805 26.9199C7.24805 26.8223 7.22266 26.7734 7.17188 26.7734H7.13672C7.08984 26.7734 7.01172 26.7949 6.90234 26.8379L6.89062 26.8262V26.8145C6.89062 26.8066 6.90625 26.7969 6.9375 26.7852V26.7734C6.89844 26.7734 6.87891 26.6641 6.87891 26.4453C6.87109 26.4453 6.86523 26.4102 6.86133 26.3398C7.01758 26.2188 7.18164 26.1582 7.35352 26.1582H7.5C7.55859 26.1582 7.6582 26.1777 7.79883 26.2168V26.2344C7.76367 26.2891 7.74609 26.3281 7.74609 26.3516V26.3926C8.0625 26.252 8.49609 26.2109 9.04688 26.2695ZM7.51172 27.1543V27.1836C7.53125 27.2227 7.54102 27.2637 7.54102 27.3066C7.53711 27.3223 7.53125 27.4023 7.52344 27.5469L7.53516 27.7812H7.54102C7.55273 27.7812 7.56836 27.5996 7.58789 27.2363C7.5957 27.2363 7.59961 27.1973 7.59961 27.1191C7.5957 27.084 7.58594 27.0664 7.57031 27.0664H7.55859C7.52734 27.0859 7.51172 27.1152 7.51172 27.1543ZM7.16016 28.9238L7.08398 28.9297V28.9414C7.08398 28.9609 7.14062 28.9707 7.25391 28.9707H7.42969L7.4707 28.9648C7.4707 28.9453 7.36719 28.9316 7.16016 28.9238ZM8.17383 26.5215V26.5332C8.20898 26.5332 8.25586 26.4766 8.31445 26.3633V26.334H8.30859C8.20703 26.3652 8.16211 26.4277 8.17383 26.5215ZM8.92969 26.709H8.95898C8.97852 26.7051 9.01562 26.6582 9.07031 26.5684V26.5625C9.07031 26.5547 9.0625 26.5508 9.04688 26.5508C8.98047 26.582 8.94727 26.623 8.94727 26.6738C8.94336 26.6738 8.9375 26.6855 8.92969 26.709ZM7.58203 26.8438H7.55859L7.5293 26.9668C7.5293 26.9863 7.54102 27.0059 7.56445 27.0254H7.57031C7.58203 27.0254 7.5918 26.998 7.59961 26.9434L7.58203 26.8438ZM8.39648 26.3926L8.42578 26.5098H8.47266V26.3867L8.45508 26.3691H8.4375C8.41016 26.373 8.39648 26.3809 8.39648 26.3926ZM7.11914 28.8301L7.10742 28.8418L7.11328 28.8535H7.43555V28.8359L7.23633 28.8301H7.11914ZM7.01367 26.3867C7.04492 26.418 7.07812 26.4336 7.11328 26.4336L7.11914 26.4219V26.3809L7.0957 26.3516C7.04102 26.3594 7.01367 26.3711 7.01367 26.3867ZM7.60547 28.8711L7.62305 28.8887H7.71094L7.73438 28.8652C7.73438 28.8574 7.72461 28.8496 7.70508 28.8418C7.63867 28.8496 7.60547 28.8594 7.60547 28.8711ZM9.29297 26.5449H9.27539V26.5566C9.30664 26.5879 9.33398 26.6035 9.35742 26.6035H9.375V26.5918C9.34375 26.5605 9.31641 26.5449 9.29297 26.5449ZM7.2832 26.2695H7.26562V26.293L7.30078 26.334H7.35352V26.3223L7.2832 26.2695ZM7.10742 26.6152V26.627H7.125C7.16797 26.627 7.19141 26.6191 7.19531 26.6035L7.18359 26.5859H7.17188C7.13672 26.5859 7.11523 26.5957 7.10742 26.6152ZM8.60742 26.3398L8.53711 26.3457V26.3516L8.54883 26.3691H8.60742C8.63477 26.3691 8.65039 26.3613 8.6543 26.3457L8.64258 26.3398H8.60742ZM7.68164 28.2266L7.6582 28.2441V28.291H7.68164L7.70508 28.2734V28.2383L7.69336 28.2266H7.68164ZM6.97852 28.8652L6.95508 28.8418L6.94336 28.8652V28.8887L6.95508 28.9062H6.97852V28.8652ZM7.79883 26.6504L7.77539 26.6562V26.6738L7.79883 26.6914H7.81641L7.83398 26.6738V26.6562L7.79883 26.6504ZM8.72461 26.334V26.3457H8.76562L8.78906 26.3281L8.77148 26.3105C8.74023 26.3184 8.72461 26.3262 8.72461 26.334ZM9.11133 26.334L9.09961 26.3457V26.3516L9.11133 26.3691H9.13477L9.14648 26.3516V26.3457L9.13477 26.334H9.11133ZM7.6875 26.2754L7.6582 26.2871V26.3105H7.6875L7.70508 26.2871L7.6875 26.2754ZM7.66992 26.3809L7.64648 26.3984V26.4102L7.6582 26.4219L7.6875 26.3984V26.3809H7.66992ZM9.09375 26.8672V26.8789H9.10547L9.12891 26.8613V26.8438H9.12305C9.10352 26.8555 9.09375 26.8633 9.09375 26.8672ZM8.89453 26.3516L8.87109 26.3691V26.375H8.90039L8.91211 26.3633V26.3516H8.89453ZM7.68164 28.3555H7.66992V28.3789H7.68164V28.3555ZM10.582 24.8633L10.7812 24.834C10.918 24.834 11.0254 24.9043 11.1035 25.0449L11.1445 25.2324C11.1367 25.3066 11.0938 25.4043 11.0156 25.5254C10.9648 25.5762 10.8867 25.6016 10.7812 25.6016C10.5352 25.6016 10.3828 25.5645 10.3242 25.4902C10.2656 25.4121 10.2383 25.3027 10.2422 25.1621C10.2266 25.1621 10.2188 25.1582 10.2188 25.1504V25.1387C10.3359 24.9551 10.457 24.8633 10.582 24.8633ZM10.4648 25.0098V25.0156C10.5977 25 10.6641 24.9824 10.6641 24.9629L10.6348 24.9512C10.5215 24.9707 10.4648 24.9902 10.4648 25.0098ZM10.5645 25.1797H10.5703L10.6055 25.1855H10.6172C10.6602 25.1855 10.6875 25.1699 10.6992 25.1387L10.6934 25.127H10.623C10.5918 25.127 10.5723 25.1445 10.5645 25.1797ZM10.9863 25.127L10.9688 25.1562V25.1797H10.9746L10.9922 25.1562V25.127H10.9863ZM10.8457 25.3203V25.3379H10.8691C10.8965 25.3379 10.918 25.3242 10.9336 25.2969V25.2793H10.9219C10.8945 25.2793 10.8691 25.293 10.8457 25.3203ZM10.7168 25.4258L10.6992 25.4434V25.4551H10.8047L10.8223 25.4434L10.8047 25.4258H10.7168ZM9.97266 25.9824H9.99023C10.0215 26.0098 10.0605 26.0234 10.1074 26.0234L10.1836 25.9883C10.7148 25.9883 10.9805 26.0039 10.9805 26.0352L10.9863 26.0762V26.1758C11.0215 26.2539 11.0391 26.3281 11.0391 26.3984V26.4922C10.9922 27.1289 10.9609 27.6445 10.9453 28.0391C10.9375 28.0625 10.9297 28.1035 10.9219 28.1621C10.9258 28.1777 10.9434 28.1855 10.9746 28.1855H10.9922C11.2031 28.1855 11.3086 28.2109 11.3086 28.2617L11.3027 28.2734V28.3086C11.3496 28.4023 11.373 28.5508 11.373 28.7539L11.3965 28.9883L11.3789 29L11.1211 29.0117H10.5352C10.0977 29.0117 9.87891 28.9766 9.87891 28.9062C9.87891 28.8633 9.86719 28.8203 9.84375 28.7773C9.85547 28.75 9.875 28.7285 9.90234 28.7129H9.91992C9.93555 28.7285 9.95312 28.7363 9.97266 28.7363H9.98438C10.0977 28.7363 10.2324 28.7266 10.3887 28.707V28.6953C10.0527 28.6719 9.88477 28.6445 9.88477 28.6133L9.87891 28.5664V28.502L9.86719 28.3496C9.86719 28.3105 10.0137 28.291 10.3066 28.291C10.3457 28.291 10.3652 28.2031 10.3652 28.0273L10.4355 26.4863H10.4238C10.3145 26.4863 10.2598 26.4785 10.2598 26.4629C10.2598 26.459 10.2656 26.4531 10.2773 26.4453C10.043 26.4453 9.92578 26.418 9.92578 26.3633C9.91016 26.3594 9.90234 26.3438 9.90234 26.3164L9.93164 26.2461C9.93164 26.2305 9.91992 26.209 9.89648 26.1816C9.92773 26.1504 9.94922 26.0879 9.96094 25.9941L9.97266 25.9824ZM10.0664 26.0996V26.123H10.0957C10.1973 26.123 10.248 26.1152 10.248 26.0996L10.2363 26.0762H10.2188C10.1172 26.0762 10.0664 26.084 10.0664 26.0996ZM10.8633 26.0586L10.8457 26.0762L10.8691 26.0938H10.8809V26.0762L10.8633 26.0586ZM10.1953 26.1816H10.0898V26.1992C10.0898 26.2148 10.1172 26.2227 10.1719 26.2227H10.2363H10.2539H10.4473C10.5059 26.2227 10.5352 26.2129 10.5352 26.1934V26.1875C10.5352 26.168 10.4219 26.166 10.1953 26.1816ZM10.7168 26.1875L10.6641 26.1816V26.1934C10.6914 26.1934 10.7246 26.2129 10.7637 26.252H10.7754C10.7832 26.252 10.7871 26.2461 10.7871 26.2344H10.7988C10.8145 26.2344 10.8242 26.252 10.8281 26.2871H10.8398L10.9219 26.2285V26.1934L10.7988 26.1875H10.7168ZM10.6934 26.5156L10.7227 26.6035L10.6816 26.709C10.6973 26.7441 10.7109 26.7617 10.7227 26.7617H10.7285L10.7402 26.7266V26.6914C10.7402 26.5508 10.7617 26.4805 10.8047 26.4805L10.8223 26.457V26.4336L10.8047 26.416H10.7695C10.7188 26.416 10.6934 26.4492 10.6934 26.5156ZM10.5117 27.0723L10.4941 27.8281C10.498 27.8555 10.5039 27.8691 10.5117 27.8691C10.5234 27.8691 10.5312 27.8516 10.5352 27.8164L10.5293 27.7285C10.5488 27.709 10.5703 27.6309 10.5938 27.4941V27.459L10.582 27.377C10.6055 27.3574 10.6172 27.3438 10.6172 27.3359C10.6016 27.293 10.5938 27.25 10.5938 27.207V27.1953C10.6094 27.1953 10.6289 26.9766 10.6523 26.5391C10.6406 26.5078 10.6289 26.4922 10.6172 26.4922C10.5586 26.4922 10.5234 26.6855 10.5117 27.0723ZM10.7988 26.5566L10.7754 26.5625V26.5977C10.7754 26.6211 10.7852 26.6387 10.8047 26.6504H10.8223L10.8398 26.627V26.5977C10.832 26.5781 10.8184 26.5645 10.7988 26.5566ZM10.7695 27.5117H10.7402C10.709 27.6562 10.6934 27.7637 10.6934 27.834H10.6992C10.7188 27.834 10.7441 27.7539 10.7754 27.5938V27.5527L10.7695 27.5117ZM10.6582 28.0625V28.1035H10.6699C10.6895 28.0957 10.6992 28.0723 10.6992 28.0332V27.9922H10.6816C10.6738 27.9922 10.666 28.0156 10.6582 28.0625ZM10.6699 28.1504L10.6523 28.1738V28.2031H10.6699L10.6934 28.1855V28.168L10.6758 28.1504H10.6699ZM11.1387 28.291L11.1211 28.2969C11.1445 28.3164 11.1875 28.3281 11.25 28.332V28.3145C11.25 28.2988 11.2246 28.291 11.1738 28.291H11.1387ZM11.1621 28.5371L11.0918 28.5547C11.0996 28.6016 11.1348 28.625 11.1973 28.625H11.2148V28.6074L11.2031 28.5898C11.2031 28.5859 11.2188 28.5742 11.25 28.5547V28.5254C11.25 28.498 11.2422 28.4824 11.2266 28.4785H11.2031C11.1914 28.4824 11.1777 28.502 11.1621 28.5371ZM10.043 28.4844L10.002 28.4961V28.502C10.0332 28.5332 10.1543 28.5508 10.3652 28.5547H10.4062C10.4375 28.5547 10.457 28.5449 10.4648 28.5254V28.5137C10.3008 28.4941 10.1602 28.4844 10.043 28.4844ZM10.5938 28.5547L10.6172 28.584C10.6523 28.584 10.6699 28.5645 10.6699 28.5254H10.6406C10.6172 28.5254 10.6016 28.5352 10.5938 28.5547ZM11.1445 28.6719L11.127 28.6953V28.707H11.1387L11.1562 28.6836V28.6719H11.1445ZM10.6934 28.707L10.6172 28.7129H10.5352V28.7363L10.6172 28.7422L10.7871 28.7305V28.7129H10.7637L10.6934 28.707ZM11.291 28.9062L11.2676 28.9238V28.9414H11.3027L11.3086 28.9238L11.3027 28.9062H11.291Z" fill="#00382E"/>
<path d="M11.7363 24.9863L11.8008 24.9688C12.1133 24.9688 12.3828 25.0039 12.6094 25.0742H12.709H12.7852L12.7969 25.1035L12.791 25.4434C12.7871 25.4668 12.7734 25.4785 12.75 25.4785L12.6797 25.4082L12.5215 25.373H12.4688L12.4336 25.3848V25.4082C12.4883 25.4316 12.5234 25.4434 12.5391 25.4434V25.4551C12.5391 25.4707 12.4941 25.4824 12.4043 25.4902L12.3691 26.6328V26.7559L12.3633 28.3262V28.4199C12.3633 28.4551 12.4727 28.4727 12.6914 28.4727H13.8164L14.0039 28.4844C14.0273 28.4844 14.0469 28.377 14.0625 28.1621C14.0742 28.1074 14.0918 28.0801 14.1152 28.0801C14.3457 28.0879 14.4609 28.1094 14.4609 28.1445C14.4453 28.1797 14.4219 28.1973 14.3906 28.1973V28.2148C14.4297 28.2539 14.4492 28.2871 14.4492 28.3145C14.4492 28.4043 14.4355 28.5234 14.4082 28.6719V28.7598L14.4141 28.7891C14.3906 28.832 14.3789 28.8711 14.3789 28.9062C14.3711 28.9062 14.3555 28.9316 14.332 28.9824C14.2461 29.0137 14.1621 29.0293 14.0801 29.0293H14.0566L13.5527 28.9824H13.5234L12.3691 29.0293L11.5664 28.9531C11.5352 28.9297 11.5195 28.9043 11.5195 28.877C11.5508 28.6465 11.5996 28.5312 11.666 28.5312C11.6855 28.5117 11.7617 28.4961 11.8945 28.4844C11.9453 28.3594 11.9473 27.793 11.9004 26.7852C11.9238 26.5117 11.9434 26.1055 11.959 25.5664V25.5078C11.959 25.4492 11.918 25.4199 11.8359 25.4199L11.7832 25.4082V25.3906C11.8535 25.3555 11.9082 25.3379 11.9473 25.3379V25.3145L11.8125 25.2969H11.7305V25.3203C11.7461 25.3203 11.7539 25.3262 11.7539 25.3379C11.7422 25.3574 11.7246 25.3672 11.7012 25.3672H11.6777C11.6387 25.3516 11.6191 25.3066 11.6191 25.2324V25.2148C11.6191 25.125 11.6445 25.0684 11.6953 25.0449C11.707 25.0449 11.7207 25.0254 11.7363 24.9863ZM11.7832 25.168L11.7656 25.1797V25.1914H11.7949L11.8125 25.1738V25.168H11.7832ZM12.5625 25.1738L12.5391 25.1914V25.2031L12.5801 25.2148V25.2207L12.5625 25.2324L12.4453 25.2266L12.4395 25.2324V25.2617L12.457 25.2793H12.5742C12.6367 25.2793 12.668 25.2578 12.668 25.2148C12.6406 25.1875 12.6113 25.1738 12.5801 25.1738H12.5625ZM12.1289 25.2148C12.1445 25.2422 12.1875 25.2559 12.2578 25.2559H12.2988L12.3281 25.2266C12.293 25.2031 12.2578 25.1914 12.2227 25.1914H12.1758C12.1445 25.1914 12.1289 25.1992 12.1289 25.2148ZM12.2637 25.3203L12.2344 25.332V25.3379L12.2461 25.3613H12.2871L12.3223 25.3496V25.332L12.2871 25.3203H12.2637ZM12.2402 25.4434L12.2344 25.4551V25.5371C12.2383 25.5879 12.248 25.6133 12.2637 25.6133L12.2988 25.5898V25.5488C12.2949 25.4785 12.2754 25.4434 12.2402 25.4434ZM12.1992 26.6035H12.1816C12.1504 26.7676 12.1484 26.875 12.1758 26.9258C12.1953 26.9609 12.209 26.9492 12.2168 26.8906L12.2227 26.6973C12.2188 26.6348 12.2109 26.6035 12.1992 26.6035ZM14.3496 28.3027H14.3379C14.3066 28.3848 14.291 28.4316 14.291 28.4434L14.2441 28.6895V28.7129L14.2617 28.7305H14.2793C14.3301 28.707 14.3594 28.5957 14.3672 28.3965C14.3633 28.334 14.3574 28.3027 14.3496 28.3027ZM12.1758 28.3262H12.1465V28.3438C12.127 28.4023 12.1172 28.4453 12.1172 28.4727C12.1172 28.5273 12.1309 28.5605 12.1582 28.5723H12.1816C12.1973 28.5723 12.2051 28.5156 12.2051 28.4023V28.3789C12.2051 28.3516 12.1953 28.334 12.1758 28.3262ZM13.7871 28.5254H13.7285V28.543C13.7285 28.5547 13.7539 28.5625 13.8047 28.5664C13.8047 28.5977 13.8398 28.6152 13.9102 28.6191L14.0215 28.6074V28.584C13.9473 28.584 13.8691 28.5645 13.7871 28.5254ZM13.623 28.584H13.4707V28.5898C13.4746 28.6016 13.4941 28.6074 13.5293 28.6074H13.6582V28.5898L13.623 28.584ZM11.6309 28.6719C11.6621 28.6719 11.6777 28.6582 11.6777 28.6309V28.6191H11.666C11.6426 28.623 11.6309 28.6406 11.6309 28.6719ZM12.2109 28.6602H12.1816V28.6895C12.252 28.7012 12.6035 28.7227 13.2363 28.7539L13.248 28.748V28.7363L12.2109 28.6602ZM11.6426 28.7129L11.6074 28.7188V28.7363L11.625 28.7539H11.6426L11.6602 28.7363V28.7305L11.6426 28.7129ZM13.5762 28.7656L13.5645 28.7773V28.7891L13.6172 28.8008H13.6992V28.7891C13.6992 28.7734 13.6855 28.7656 13.6582 28.7656H13.5762ZM13.8281 28.8418V28.8477H13.8457C13.8848 28.8477 13.9238 28.832 13.9629 28.8008C13.959 28.7852 13.9434 28.7773 13.916 28.7773C13.9004 28.7773 13.8711 28.7988 13.8281 28.8418ZM13.998 28.8652L13.9102 28.8711V28.877C13.9414 28.9082 13.9805 28.9238 14.0273 28.9238H14.0449C14.0645 28.9238 14.082 28.916 14.0977 28.9004C14.1172 28.916 14.1387 28.9238 14.1621 28.9238H14.209C14.252 28.9238 14.2754 28.916 14.2793 28.9004V28.8945C14.2793 28.875 14.2188 28.8652 14.0977 28.8652H13.998ZM12.3984 28.918L12.2695 28.9238V28.9355C12.2695 28.9629 12.3613 28.9805 12.5449 28.9883C12.666 28.9883 12.7656 28.9766 12.8438 28.9531V28.9355C12.6797 28.9238 12.5332 28.918 12.4043 28.918H12.3984ZM12.1523 28.9355H12.1406V28.9531H12.1523V28.9355ZM13.0664 28.9355L13.0312 28.9473V28.9707H13.0664L13.1367 28.9531V28.9355H13.0664ZM15.4102 24.8633L15.6094 24.834C15.7461 24.834 15.8535 24.9043 15.9316 25.0449L15.9727 25.2324C15.9648 25.3066 15.9219 25.4043 15.8438 25.5254C15.793 25.5762 15.7148 25.6016 15.6094 25.6016C15.3633 25.6016 15.2109 25.5645 15.1523 25.4902C15.0938 25.4121 15.0664 25.3027 15.0703 25.1621C15.0547 25.1621 15.0469 25.1582 15.0469 25.1504V25.1387C15.1641 24.9551 15.2852 24.8633 15.4102 24.8633ZM15.293 25.0098V25.0156C15.4258 25 15.4922 24.9824 15.4922 24.9629L15.4629 24.9512C15.3496 24.9707 15.293 24.9902 15.293 25.0098ZM15.3926 25.1797H15.3984L15.4336 25.1855H15.4453C15.4883 25.1855 15.5156 25.1699 15.5273 25.1387L15.5215 25.127H15.4512C15.4199 25.127 15.4004 25.1445 15.3926 25.1797ZM15.8145 25.127L15.7969 25.1562V25.1797H15.8027L15.8203 25.1562V25.127H15.8145ZM15.6738 25.3203V25.3379H15.6973C15.7246 25.3379 15.7461 25.3242 15.7617 25.2969V25.2793H15.75C15.7227 25.2793 15.6973 25.293 15.6738 25.3203ZM15.5449 25.4258L15.5273 25.4434V25.4551H15.6328L15.6504 25.4434L15.6328 25.4258H15.5449ZM14.8008 25.9824H14.8184C14.8496 26.0098 14.8887 26.0234 14.9355 26.0234L15.0117 25.9883C15.543 25.9883 15.8086 26.0039 15.8086 26.0352L15.8145 26.0762V26.1758C15.8496 26.2539 15.8672 26.3281 15.8672 26.3984V26.4922C15.8203 27.1289 15.7891 27.6445 15.7734 28.0391C15.7656 28.0625 15.7578 28.1035 15.75 28.1621C15.7539 28.1777 15.7715 28.1855 15.8027 28.1855H15.8203C16.0312 28.1855 16.1367 28.2109 16.1367 28.2617L16.1309 28.2734V28.3086C16.1777 28.4023 16.2012 28.5508 16.2012 28.7539L16.2246 28.9883L16.207 29L15.9492 29.0117H15.3633C14.9258 29.0117 14.707 28.9766 14.707 28.9062C14.707 28.8633 14.6953 28.8203 14.6719 28.7773C14.6836 28.75 14.7031 28.7285 14.7305 28.7129H14.748C14.7637 28.7285 14.7812 28.7363 14.8008 28.7363H14.8125C14.9258 28.7363 15.0605 28.7266 15.2168 28.707V28.6953C14.8809 28.6719 14.7129 28.6445 14.7129 28.6133L14.707 28.5664V28.502L14.6953 28.3496C14.6953 28.3105 14.8418 28.291 15.1348 28.291C15.1738 28.291 15.1934 28.2031 15.1934 28.0273L15.2637 26.4863H15.252C15.1426 26.4863 15.0879 26.4785 15.0879 26.4629C15.0879 26.459 15.0938 26.4531 15.1055 26.4453C14.8711 26.4453 14.7539 26.418 14.7539 26.3633C14.7383 26.3594 14.7305 26.3438 14.7305 26.3164L14.7598 26.2461C14.7598 26.2305 14.748 26.209 14.7246 26.1816C14.7559 26.1504 14.7773 26.0879 14.7891 25.9941L14.8008 25.9824ZM14.8945 26.0996V26.123H14.9238C15.0254 26.123 15.0762 26.1152 15.0762 26.0996L15.0645 26.0762H15.0469C14.9453 26.0762 14.8945 26.084 14.8945 26.0996ZM15.6914 26.0586L15.6738 26.0762L15.6973 26.0938H15.709V26.0762L15.6914 26.0586ZM15.0234 26.1816H14.918V26.1992C14.918 26.2148 14.9453 26.2227 15 26.2227H15.0645H15.082H15.2754C15.334 26.2227 15.3633 26.2129 15.3633 26.1934V26.1875C15.3633 26.168 15.25 26.166 15.0234 26.1816ZM15.5449 26.1875L15.4922 26.1816V26.1934C15.5195 26.1934 15.5527 26.2129 15.5918 26.252H15.6035C15.6113 26.252 15.6152 26.2461 15.6152 26.2344H15.627C15.6426 26.2344 15.6523 26.252 15.6562 26.2871H15.668L15.75 26.2285V26.1934L15.627 26.1875H15.5449ZM15.5215 26.5156L15.5508 26.6035L15.5098 26.709C15.5254 26.7441 15.5391 26.7617 15.5508 26.7617H15.5566L15.5684 26.7266V26.6914C15.5684 26.5508 15.5898 26.4805 15.6328 26.4805L15.6504 26.457V26.4336L15.6328 26.416H15.5977C15.5469 26.416 15.5215 26.4492 15.5215 26.5156ZM15.3398 27.0723L15.3223 27.8281C15.3262 27.8555 15.332 27.8691 15.3398 27.8691C15.3516 27.8691 15.3594 27.8516 15.3633 27.8164L15.3574 27.7285C15.377 27.709 15.3984 27.6309 15.4219 27.4941V27.459L15.4102 27.377C15.4336 27.3574 15.4453 27.3438 15.4453 27.3359C15.4297 27.293 15.4219 27.25 15.4219 27.207V27.1953C15.4375 27.1953 15.457 26.9766 15.4805 26.5391C15.4688 26.5078 15.457 26.4922 15.4453 26.4922C15.3867 26.4922 15.3516 26.6855 15.3398 27.0723ZM15.627 26.5566L15.6035 26.5625V26.5977C15.6035 26.6211 15.6133 26.6387 15.6328 26.6504H15.6504L15.668 26.627V26.5977C15.6602 26.5781 15.6465 26.5645 15.627 26.5566ZM15.5977 27.5117H15.5684C15.5371 27.6562 15.5215 27.7637 15.5215 27.834H15.5273C15.5469 27.834 15.5723 27.7539 15.6035 27.5938V27.5527L15.5977 27.5117ZM15.4863 28.0625V28.1035H15.498C15.5176 28.0957 15.5273 28.0723 15.5273 28.0332V27.9922H15.5098C15.502 27.9922 15.4941 28.0156 15.4863 28.0625ZM15.498 28.1504L15.4805 28.1738V28.2031H15.498L15.5215 28.1855V28.168L15.5039 28.1504H15.498ZM15.9668 28.291L15.9492 28.2969C15.9727 28.3164 16.0156 28.3281 16.0781 28.332V28.3145C16.0781 28.2988 16.0527 28.291 16.002 28.291H15.9668ZM15.9902 28.5371L15.9199 28.5547C15.9277 28.6016 15.9629 28.625 16.0254 28.625H16.043V28.6074L16.0312 28.5898C16.0312 28.5859 16.0469 28.5742 16.0781 28.5547V28.5254C16.0781 28.498 16.0703 28.4824 16.0547 28.4785H16.0312C16.0195 28.4824 16.0059 28.502 15.9902 28.5371ZM14.8711 28.4844L14.8301 28.4961V28.502C14.8613 28.5332 14.9824 28.5508 15.1934 28.5547H15.2344C15.2656 28.5547 15.2852 28.5449 15.293 28.5254V28.5137C15.1289 28.4941 14.9883 28.4844 14.8711 28.4844ZM15.4219 28.5547L15.4453 28.584C15.4805 28.584 15.498 28.5645 15.498 28.5254H15.4688C15.4453 28.5254 15.4297 28.5352 15.4219 28.5547ZM15.9727 28.6719L15.9551 28.6953V28.707H15.9668L15.9844 28.6836V28.6719H15.9727ZM15.5215 28.707L15.4453 28.7129H15.3633V28.7363L15.4453 28.7422L15.6152 28.7305V28.7129H15.5918L15.5215 28.707ZM16.1191 28.9062L16.0957 28.9238V28.9414H16.1309L16.1367 28.9238L16.1309 28.9062H16.1191ZM16.3887 26.0469L16.4004 26.0352C16.4902 26.0508 16.584 26.0586 16.6816 26.0586H17.1621L17.1797 26.0762C17.1562 26.1465 17.1445 26.2012 17.1445 26.2402V26.3398C17.1602 26.4492 17.1914 26.5039 17.2383 26.5039C17.2617 26.4609 17.3398 26.4199 17.4727 26.3809C17.7891 26.2441 18.0469 26.1758 18.2461 26.1758C18.3789 26.1758 18.5215 26.2344 18.6738 26.3516C18.7871 26.3945 18.8965 26.4863 19.002 26.627C19.1621 26.8809 19.2422 27.1797 19.2422 27.5234V27.5703L19.2012 27.9922L19.2422 28.2969L19.1836 28.5723V28.584V28.6309L19.4062 28.6426H19.5059C19.5723 28.6426 19.6113 28.6484 19.623 28.6602C19.6074 28.9453 19.5781 29.0879 19.5352 29.0879C19.457 29.1348 19.373 29.1582 19.2832 29.1582H19.1602C18.9727 29.1582 18.7754 29.1836 18.5684 29.2344C18.4316 29.2148 18.3633 29.1465 18.3633 29.0293L18.3574 28.8184C18.3574 28.6895 18.3906 28.5957 18.457 28.5371C18.4922 28.3457 18.5332 28.1719 18.5801 28.0156L18.6152 27.4941C18.627 27.4941 18.6328 27.4512 18.6328 27.3652C18.6328 27.2598 18.5488 27.1094 18.3809 26.9141C18.252 26.8594 18.1777 26.832 18.1582 26.832C17.9316 26.832 17.7285 26.9277 17.5488 27.1191C17.5332 27.1191 17.4375 27.2148 17.2617 27.4062C17.207 27.4492 17.1797 27.5801 17.1797 27.7988C17.1875 28.1934 17.2012 28.3906 17.2207 28.3906C17.377 28.418 17.4551 28.4473 17.4551 28.4785V28.502L17.3262 28.4961L17.2324 28.502V28.5254C17.2324 28.541 17.3066 28.5605 17.4551 28.584C17.4824 28.6113 17.4961 28.6562 17.4961 28.7188V28.7305C17.4961 28.8242 17.4766 28.9238 17.4375 29.0293L16.7578 29.0352C16.6914 29.0352 16.6426 29.002 16.6113 28.9355C16.5957 28.8613 16.5781 28.7168 16.5586 28.502C16.5586 28.4824 16.6172 28.4609 16.7344 28.4375L16.7637 28.3965V28.3906C16.7637 28.3672 16.748 28.334 16.7168 28.291V28.1094V27.7754L16.7402 27.2363C16.7402 26.8691 16.7246 26.6855 16.6934 26.6855H16.6641L16.3887 26.7207C16.3613 26.7207 16.3242 26.6973 16.2773 26.6504V26.627C16.2969 26.5957 16.3066 26.5625 16.3066 26.5273L16.2949 26.3105L16.3887 26.0469ZM16.8984 26.1523L16.418 26.2285V26.2402C16.418 26.252 16.4473 26.2598 16.5059 26.2637C16.7598 26.2637 16.8867 26.2461 16.8867 26.2109L16.9102 26.1758V26.1641H16.8984V26.1523ZM18.0645 26.2637V26.2695C18.0918 26.2695 18.1387 26.293 18.2051 26.3398L18.2695 26.3574L18.457 26.3516L18.4629 26.3398V26.334C18.459 26.3105 18.4375 26.2988 18.3984 26.2988H18.375L18.3164 26.3105C18.2305 26.2598 18.168 26.2344 18.1289 26.2344C18.0938 26.2344 18.0723 26.2441 18.0645 26.2637ZM17.666 26.3691V26.375L17.6777 26.3926C17.8613 26.3457 17.9531 26.3105 17.9531 26.2871H17.9414C17.8555 26.2871 17.7637 26.3145 17.666 26.3691ZM16.5352 26.375L16.5527 26.3926H16.5645C16.6152 26.3887 16.6406 26.377 16.6406 26.3574L16.6113 26.3516C16.5605 26.3516 16.5352 26.3594 16.5352 26.375ZM16.5879 26.4922V26.5039L16.6992 26.498H16.7168C16.7559 26.498 16.7793 26.5078 16.7871 26.5273V26.5449C16.7676 26.5645 16.7578 26.584 16.7578 26.6035C16.7773 26.6191 16.8008 26.627 16.8281 26.627C16.8398 26.627 16.8457 26.6191 16.8457 26.6035L16.8516 26.4102L16.8457 26.3926H16.8281C16.8047 26.4082 16.7266 26.4395 16.5938 26.4863L16.5879 26.4922ZM17.5605 26.4277L17.5664 26.4336V26.4395C17.6016 26.4277 17.6191 26.418 17.6191 26.4102V26.3984H17.6074C17.5762 26.4062 17.5605 26.416 17.5605 26.4277ZM16.377 26.4336V26.4395C16.377 26.4512 16.3867 26.4609 16.4062 26.4688C16.4375 26.4688 16.4727 26.4512 16.5117 26.416V26.4102H16.418C16.3906 26.4141 16.377 26.4219 16.377 26.4336ZM18.3984 26.5273C18.3984 26.543 18.4336 26.5547 18.5039 26.5625C18.5195 26.5508 18.5273 26.5352 18.5273 26.5156C18.5273 26.4961 18.4961 26.4805 18.4336 26.4688C18.4102 26.4844 18.3984 26.5039 18.3984 26.5273ZM17.2148 26.5742V26.5977C17.2695 26.5977 17.3281 26.5625 17.3906 26.4922V26.4863L17.3848 26.4805H17.3789C17.332 26.4805 17.2773 26.5117 17.2148 26.5742ZM18.6211 26.4922L18.6035 26.5156C18.6113 26.5352 18.627 26.5449 18.6504 26.5449H18.6797L18.709 26.5215V26.5156C18.7051 26.5 18.6855 26.4922 18.6504 26.4922H18.6211ZM17.9707 26.5508V26.5625H18C18.0586 26.5547 18.0879 26.543 18.0879 26.5273V26.5156H18.0469C17.9961 26.5195 17.9707 26.5312 17.9707 26.5508ZM17.0098 26.5215H16.9805L16.9688 26.5566V26.6621C16.9688 26.709 16.9609 26.7402 16.9453 26.7559V26.7852L16.9688 26.8672V26.9141C16.9688 26.9453 16.9785 26.9668 16.998 26.9785C17.002 26.9785 17.0137 26.9336 17.0332 26.8438C17.0879 26.8008 17.1152 26.7676 17.1152 26.7441C17.1152 26.7246 17.0938 26.6816 17.0508 26.6152C17.0391 26.5527 17.0254 26.5215 17.0098 26.5215ZM16.4238 26.6152V26.627H16.4824L16.5059 26.6035V26.5977L16.4766 26.5859C16.4414 26.5977 16.4238 26.6074 16.4238 26.6152ZM18.5215 26.6328L18.4863 26.6152L18.4746 26.627V26.6328L18.5039 26.6504H18.5098L18.5215 26.6328ZM18.0703 26.6738L18.082 26.6855H18.0879C18.1738 26.6855 18.2168 26.6777 18.2168 26.6621L18.1699 26.6504C18.1035 26.6582 18.0703 26.666 18.0703 26.6738ZM17.2207 26.9023V26.9199C17.3223 26.9082 17.4629 26.8242 17.6426 26.668V26.6621H17.6074C17.5918 26.6621 17.5449 26.6895 17.4668 26.7441C17.3027 26.7949 17.2207 26.8477 17.2207 26.9023ZM18.6211 26.6738H18.6152V26.6914C18.6152 26.7031 18.6406 26.7578 18.6914 26.8555C18.6914 26.8867 18.6992 26.9023 18.7148 26.9023L18.7383 26.8789V26.8555C18.7383 26.793 18.6992 26.7324 18.6211 26.6738ZM16.7988 26.7441L16.8105 26.7617H16.8223L16.8398 26.6855H16.8223C16.8105 26.6855 16.8027 26.7051 16.7988 26.7441ZM18.2754 26.7852V26.8027H18.4219L18.4453 26.7852V26.7617L18.416 26.7441H18.3867C18.3125 26.7559 18.2754 26.7695 18.2754 26.7852ZM17.6953 26.8789C17.7812 26.8633 17.8242 26.8418 17.8242 26.8145L17.8066 26.8027H17.7891C17.7305 26.8027 17.6992 26.8281 17.6953 26.8789ZM17.5078 26.9492V26.9609H17.5254C17.5879 26.9102 17.6191 26.8672 17.6191 26.832H17.6074V26.8203C17.5762 26.8203 17.543 26.8633 17.5078 26.9492ZM17.0566 26.8906L17.0684 26.9258C17.0684 26.957 17.0508 26.9883 17.0156 27.0195C17.0352 27.0391 17.0449 27.0586 17.0449 27.0781C17.0449 27.2734 17.0586 27.3711 17.0859 27.3711H17.0918C17.123 27.3008 17.1387 27.209 17.1387 27.0957C17.1348 26.9512 17.1172 26.875 17.0859 26.8672H17.0742C17.0625 26.8672 17.0566 26.875 17.0566 26.8906ZM18.709 26.9668V26.9844C18.7559 27.1602 18.7852 27.252 18.7969 27.2598L18.8086 27.2188V27.166C18.7812 27.0332 18.748 26.9668 18.709 26.9668ZM18.9727 26.9785H18.9668C18.9746 27.1855 18.9941 27.2891 19.0254 27.2891H19.0371C19.0176 27.082 18.9961 26.9785 18.9727 26.9785ZM17.4375 26.9902L17.4023 27.0371V27.0488L17.4082 27.0605H17.4375L17.4551 26.9902H17.4375ZM17.2734 27.0488L17.2617 27.0605L17.2734 27.0781H17.2969V27.0605L17.2852 27.0488H17.2734ZM18.9316 27.7402V27.7461L18.9492 27.8164H18.9785C18.9746 27.7656 18.959 27.7402 18.9316 27.7402ZM18.709 28.1621L18.7148 28.168H18.7207C18.7324 28.168 18.7383 28.1484 18.7383 28.1094V28.0391C18.7227 28.0391 18.7129 28.0801 18.709 28.1621ZM18.6738 28.2559C18.6973 28.2832 18.709 28.3203 18.709 28.3672H18.7207L18.7383 28.2969V28.1973C18.6953 28.1973 18.6738 28.2168 18.6738 28.2559ZM18.9316 28.2031H18.9199V28.2324H18.9316V28.2031ZM19.0664 28.2324L19.0547 28.3496V28.4961H19.0605C19.1113 28.4336 19.1367 28.375 19.1367 28.3203V28.3145C19.1367 28.2598 19.1133 28.2324 19.0664 28.2324ZM18.9141 28.502V28.5137H18.9199L18.9434 28.4492V28.4375H18.9316C18.9199 28.4375 18.9141 28.459 18.9141 28.502ZM16.6523 28.5254L16.6406 28.5488V28.5547C16.6484 28.625 16.6738 28.6602 16.7168 28.6602H16.752L16.7695 28.6426V28.6309C16.7344 28.5879 16.7168 28.5527 16.7168 28.5254H16.6523ZM18.9316 28.6074H18.9082V28.6309L18.9316 28.6543L18.9492 28.6426V28.6309L18.9316 28.6074ZM19.248 28.7422V28.7598C19.4238 28.7598 19.5117 28.7461 19.5117 28.7188V28.707H19.4297C19.3086 28.7109 19.248 28.7227 19.248 28.7422ZM16.8984 28.8008C16.8984 28.8203 16.9492 28.8301 17.0508 28.8301C17.2461 28.8301 17.3438 28.8203 17.3438 28.8008C17.3438 28.7773 17.2773 28.7656 17.1445 28.7656C16.9961 28.7656 16.9141 28.7773 16.8984 28.8008ZM18.4863 28.8184H18.4688V28.8535L18.4863 28.8711H18.5039L18.5098 28.8535V28.8477L18.4863 28.8184ZM19.3008 28.8652V28.8828C19.3086 28.9023 19.3262 28.9121 19.3535 28.9121C19.416 28.9121 19.4531 28.8984 19.4648 28.8711V28.8535C19.457 28.8301 19.4355 28.8184 19.4004 28.8184H19.3711C19.332 28.8184 19.3086 28.834 19.3008 28.8652ZM18.6152 28.9707C18.627 29.002 18.6465 29.0176 18.6738 29.0176C18.8848 29.0137 18.9902 29 18.9902 28.9766C18.9629 28.9414 18.9141 28.9238 18.8438 28.9238C18.6914 28.9277 18.6152 28.9434 18.6152 28.9707ZM18.4688 29.082L18.4453 29.1055V29.1172C18.4453 29.1445 18.498 29.1582 18.6035 29.1582H18.6328L18.6797 29.1465V29.1406C18.6406 29.1016 18.5781 29.082 18.4922 29.082H18.4688ZM19.7402 24.582L19.7754 24.5762H19.8223C20.166 24.6152 20.3691 24.6641 20.4316 24.7227C20.459 24.7227 20.4844 24.7988 20.5078 24.9512L20.4785 25.0039V25.0215C20.5215 25.0723 20.5508 25.3184 20.5664 25.7598C20.5664 26.5371 20.5879 27.0391 20.6309 27.2656H20.6543C20.8652 27.0938 21.1914 26.8574 21.6328 26.5566C21.668 26.5566 21.6973 26.3828 21.7207 26.0352C21.7207 25.9531 21.7598 25.9121 21.8379 25.9121L22.0723 25.8945C22.4238 25.8945 22.6348 25.9316 22.7051 26.0059V26.0176L22.6875 26.0352C22.6172 26.0078 22.5625 25.9941 22.5234 25.9941L22.5059 26.0176V26.0234C22.5059 26.0469 22.5625 26.0645 22.6758 26.0762C22.707 26.0762 22.7227 26.168 22.7227 26.3516C22.7227 26.4258 22.6934 26.4629 22.6348 26.4629C22.6191 26.4629 22.5898 26.4902 22.5469 26.5449L22.5293 26.5508L22.4121 26.5449H22.3887C22.3887 26.5879 22.3438 26.6309 22.2539 26.6738C22.2383 26.6738 22.2305 26.6836 22.2305 26.7031L22.2539 26.7441L21.6914 27.1309L21.6855 27.1484C21.6895 27.1719 21.8828 27.5684 22.2656 28.3379C22.3203 28.4512 22.3555 28.541 22.3711 28.6074H22.3359L22.3008 28.5723H22.2832C22.2832 28.6191 22.3574 28.6426 22.5059 28.6426C22.7676 28.6426 22.8984 28.666 22.8984 28.7129L22.8516 28.7715C22.9023 28.8574 22.9277 28.9844 22.9277 29.1523C22.9277 29.207 22.9004 29.2344 22.8457 29.2344L22.793 29.2402C22.6992 29.2246 22.4707 29.2168 22.1074 29.2168H22.0723C22.0254 29.2168 21.9902 29.1562 21.9668 29.0352C21.9434 28.832 21.9043 28.6465 21.8496 28.4785C21.7598 28.2754 21.6289 28.0039 21.457 27.6641C21.3906 27.4688 21.3398 27.3711 21.3047 27.3711C21.2383 27.3789 21.1328 27.4395 20.9883 27.5527C20.9375 27.5957 20.9004 27.6172 20.877 27.6172C20.8535 27.6094 20.8418 27.6016 20.8418 27.5938V27.5879L20.8594 27.5586V27.5527H20.8242C20.8008 27.5527 20.7754 27.6055 20.748 27.7109L20.7539 27.7461C20.7227 27.7656 20.707 27.7988 20.707 27.8457L20.7188 28.4727C20.7188 28.5234 20.8027 28.5566 20.9707 28.5723C20.998 28.5957 21.0586 28.623 21.1523 28.6543L21.1758 28.7129L21.1699 28.8008V28.8652L21.1875 28.9473V28.959C21.1719 28.9902 21.1426 29.0156 21.0996 29.0352L21.0938 29.0293H21.0586V29.0527C21.0586 29.0801 21.0859 29.1035 21.1406 29.123V29.1348C21.1406 29.1465 21.1172 29.1562 21.0703 29.1641L20.7949 29.0938C20.416 29.0742 20.1699 29.0527 20.0566 29.0293L19.9746 29.0469C19.9238 29.0234 19.8984 28.9609 19.8984 28.8594V28.8242L19.8926 28.8184C19.8926 28.752 19.9219 28.6973 19.9805 28.6543H20.0039V28.7422L20.0273 28.7656H20.1035L20.0801 28.7363V28.7188L20.127 28.7129H20.1855L20.1152 28.6426L20.1973 28.625V28.6074C20.1934 28.5957 20.1738 28.5898 20.1387 28.5898H20.1152L19.9922 28.6074V28.5957C19.9922 28.5684 20.0801 28.541 20.2559 28.5137C20.2988 28.502 20.3652 28.4902 20.4551 28.4785L20.4727 28.4551V28.4492C20.4727 28.4414 20.4453 28.4375 20.3906 28.4375C20.3594 28.4375 20.3438 28.2695 20.3438 27.9336C20.3203 27.5273 20.2832 27.248 20.2324 27.0957C20.209 26.123 20.1777 25.543 20.1387 25.3555C20.1387 25.3438 20.0703 25.332 19.9336 25.3203L19.7637 25.3613C19.7207 25.3184 19.6973 25.2832 19.6934 25.2559L19.6816 24.8926L19.6758 24.8691C19.6836 24.8105 19.6914 24.7812 19.6992 24.7812L19.7637 24.793V24.7812C19.7637 24.7656 19.748 24.7363 19.7168 24.6934V24.6641C19.748 24.6641 19.7637 24.6582 19.7637 24.6465L19.7402 24.6055V24.582ZM20.2852 24.916V24.9277C20.3008 24.9668 20.3242 24.9863 20.3555 24.9863C20.3828 24.9551 20.3965 24.9199 20.3965 24.8809L20.373 24.875C20.3301 24.875 20.3008 24.8887 20.2852 24.916ZM19.916 25.0098V25.0215C19.916 25.0371 19.9453 25.0508 20.0039 25.0625V25.0742C19.9297 25.0781 19.8926 25.0898 19.8926 25.1094V25.1328L19.9102 25.1504H19.9688C20.0273 25.1504 20.0703 25.1152 20.0977 25.0449L20.1211 25.0215C20.1211 24.998 20.0742 24.9863 19.9805 24.9863H19.957C19.9297 24.9902 19.916 24.998 19.916 25.0098ZM20.3789 25.5254L20.3672 25.5488V25.666C20.3672 25.7598 20.377 25.8066 20.3965 25.8066H20.4023L20.4199 25.7891V25.707C20.416 25.5859 20.4023 25.5254 20.3789 25.5254ZM21.9258 25.9238L21.8906 25.9297V25.9473L21.8965 25.9648H21.9258L21.9375 25.9473V25.9355L21.9258 25.9238ZM21.7852 26.2637C21.7891 26.3145 21.7969 26.3398 21.8086 26.3398H21.8496C21.8613 26.3398 21.8672 26.332 21.8672 26.3164L21.8379 26.2461L21.8672 26.1406V26.123H21.8555C21.8086 26.1465 21.7852 26.1934 21.7852 26.2637ZM22.3184 26.3105C22.3184 26.3223 22.3809 26.332 22.5059 26.3398C22.5488 26.332 22.5703 26.3223 22.5703 26.3105V26.2871H22.5293H22.4121C22.3496 26.2871 22.3184 26.2949 22.3184 26.3105ZM20.3789 26.375H20.3672V26.4043L20.3789 26.416L20.4023 26.3926L20.3789 26.375ZM21.7617 26.3926L21.7852 26.416H21.791C21.8223 26.416 21.8398 26.4082 21.8438 26.3926V26.375H21.8203C21.7891 26.375 21.7695 26.3809 21.7617 26.3926ZM21.7031 26.6621V26.668H21.709C21.7246 26.668 21.7852 26.6328 21.8906 26.5625C21.9297 26.5586 21.9492 26.5469 21.9492 26.5273V26.5039H21.9141C21.8672 26.5039 21.7969 26.5566 21.7031 26.6621ZM21.6914 26.9199V26.9375H21.7031C21.8477 26.8984 22.0312 26.7852 22.2539 26.5977L22.2656 26.5742H22.2539C22.0586 26.6445 21.8711 26.7598 21.6914 26.9199ZM20.6836 27.3477V27.3652H20.707C20.7578 27.3652 20.8008 27.3418 20.8359 27.2949V27.2773C20.7812 27.2773 20.7305 27.3008 20.6836 27.3477ZM21.3926 27.3359C21.4199 27.4102 21.4492 27.4473 21.4805 27.4473H21.4863V27.4414C21.4824 27.3555 21.457 27.3125 21.4102 27.3125C21.3984 27.3125 21.3926 27.3203 21.3926 27.3359ZM20.5254 27.3535L20.5078 27.3828V27.3887H20.5254L20.5371 27.3711V27.3535H20.5254ZM20.9238 27.4824V27.4941H20.9355C21.0137 27.4629 21.082 27.4199 21.1406 27.3652V27.3535C20.9961 27.416 20.9238 27.459 20.9238 27.4824ZM20.5137 27.6523V27.7051L20.5254 27.7168H20.543C20.5625 27.709 20.5723 27.6875 20.5723 27.6523V27.6406C20.5723 27.5977 20.5645 27.5547 20.5488 27.5117H20.543C20.5234 27.5117 20.5137 27.5586 20.5137 27.6523ZM21.6152 27.6465H21.5977V27.6523C21.6367 27.8008 21.707 27.9648 21.8086 28.1445H21.8379V28.127C21.8379 28.0449 21.7637 27.8848 21.6152 27.6465ZM20.5078 27.8809V27.9629L20.5254 27.9746C20.5566 27.9746 20.5723 27.9551 20.5723 27.916V27.8223L20.5605 27.8105H20.543C20.5195 27.8145 20.5078 27.8379 20.5078 27.8809ZM21.9258 27.8574H21.9082V27.8691L21.9316 27.8926H21.9375V27.8691L21.9258 27.8574ZM20.5723 28.1035H20.5488L20.543 28.1387V28.1973H20.5488C20.5645 28.1934 20.5723 28.1738 20.5723 28.1387V28.1035ZM21.8672 28.209H21.8555V28.2207C21.8867 28.3184 21.9199 28.3789 21.9551 28.4023H21.9785C21.9785 28.3711 21.9434 28.3066 21.873 28.209H21.8672ZM20.5137 28.4551L20.543 28.4844H20.5488C20.5684 28.4766 20.5781 28.4609 20.5781 28.4375C20.5781 28.4102 20.5723 28.3965 20.5605 28.3965C20.5293 28.416 20.5137 28.4355 20.5137 28.4551ZM22.0957 28.5957V28.6074L22.1133 28.6309H22.1602L22.1836 28.6074C22.1719 28.584 22.1543 28.5723 22.1309 28.5723C22.1074 28.5762 22.0957 28.584 22.0957 28.5957ZM21.0996 28.7012H21.082V28.7129L21.1055 28.7305H21.1113V28.7129L21.0996 28.7012ZM20.8828 28.7715C20.9102 28.8223 20.9512 28.8477 21.0059 28.8477H21.0117L21.0293 28.8301C21.0137 28.7832 20.9941 28.752 20.9707 28.7363H20.9473C20.916 28.7363 20.8945 28.748 20.8828 28.7715ZM22.8164 28.7598H22.7988V28.7891L22.8164 28.8008H22.834V28.7715L22.8164 28.7598ZM20.502 28.7715H20.4902V28.7891H20.5137L20.502 28.7715ZM20.6953 28.7715L20.6836 28.7891H20.7129L20.6953 28.7715ZM20.0625 28.8418V28.8477L20.0684 28.8594V28.8652L20.3438 28.8711H20.3789C20.5039 28.8711 20.5664 28.8613 20.5664 28.8418V28.8301C20.5664 28.8223 20.5234 28.8164 20.4375 28.8125C20.2188 28.8203 20.0938 28.8301 20.0625 28.8418ZM22.4473 28.8301L22.4297 28.8477L22.459 28.8711H22.4824L22.5059 28.8477L22.4883 28.8301H22.4473ZM22.6055 28.8594H22.5469V28.8652L22.5762 28.8828H22.6055V28.8594ZM22.8164 28.9473V29.0469H22.8223C22.8379 29.0469 22.8457 29.0059 22.8457 28.9238V28.8828C22.8262 28.8906 22.8164 28.9121 22.8164 28.9473ZM20.748 28.8887L20.7305 28.9004V28.918L20.8184 28.9238H20.8535V28.918C20.8535 28.8984 20.8184 28.8887 20.748 28.8887ZM20.25 28.9355L20.2324 28.9473L20.8652 29.0352V29.0176C20.8652 28.9629 20.7461 28.9355 20.5078 28.9355H20.25ZM20.9473 29.0117L20.9238 29.0176V29.0293L20.9355 29.0469H20.9824L20.9941 29.0293C20.9902 29.0176 20.9746 29.0117 20.9473 29.0117ZM22.4004 29.1348V29.1406H22.4238L22.5469 29.1523L22.6875 29.1406H22.7051L22.7227 29.1289V29.123L22.6875 29.1172H22.459C22.4199 29.1172 22.4004 29.123 22.4004 29.1348Z" fill="#7FBA17"/>
</svg>
